<?xml version="1.0" encoding="utf-8"?>
<!-- Generator: Adobe Illustrator 21.0.0, SVG Export Plug-In . SVG Version: 6.00 Build 0)  -->
<svg version="1.1" id="图层_1" xmlns="http://www.w3.org/2000/svg" xmlns:xlink="http://www.w3.org/1999/xlink" x="0px" y="0px"
	 viewBox="0 0 200.2 200" style="enable-background:new 0 0 200.2 200;" xml:space="preserve">
<style type="text/css">
	.st0{fill:#CCCCCC;}
</style>
<path class="st0" d="M152,195.8c-2.4,0-4.8-0.6-7.4-2l-40.4-21.2c-1-0.6-2.4-1-4-1c-1.4,0-3,0.4-4,0.8L56,193.8
	c-2.4,1.4-4.8,2-7.6,2c-4.8,0-9.4-2.2-12.6-5.8c-3.2-3.6-4.4-8.4-3.6-13.2L40,132c0.4-2.8-0.6-5.6-2.6-7.6L5,93
	c-4.6-4.4-6.2-10.8-4.2-16.8c2-6,7-10.2,13.2-11.2l44.8-6.6c2.8-0.4,5.4-2.2,6.6-4.6l20-40.8c2.8-5.6,8.4-9,14.6-9s11.8,3.4,14.6,9
	l20,40.8c1.4,2.6,3.8,4.2,6.6,4.6L186,65c6.2,1,11.2,5.2,13.2,11c2,6,0.4,12.4-4,16.8L163,124.4c-2.2,2-3,4.8-2.6,7.6l7.6,44.6
	c0.8,4.8-0.4,9.6-3.6,13.2C161.4,193.6,156.8,195.8,152,195.8z"/>
</svg>
